<?xml version="1.0" encoding="us-ascii" standalone="no"?><svg xmlns="http://www.w3.org/2000/svg" xmlns:xlink="http://www.w3.org/1999/xlink" contentStyleType="text/css" height="375px" preserveAspectRatio="none" style="width:445px;height:375px;background:#FFFFFF;" version="1.1" viewBox="0 0 445 375" width="445px" zoomAndPan="magnify"><defs/><g><!--cluster comp_a--><g id="cluster_comp_a"><rect fill="none" height="362" rx="2.5" ry="2.5" style="stroke:#181818;stroke-width:1.0;" width="146" x="7" y="7"/><text fill="#000000" font-family="sans-serif" font-size="14" font-weight="bold" lengthAdjust="spacing" textLength="107" x="26.5" y="21.9951">Component A</text></g><!--cluster comp_b--><g id="cluster_comp_b"><rect fill="none" height="362" rx="2.5" ry="2.5" style="stroke:#181818;stroke-width:1.0;" width="146" x="293" y="7"/><text fill="#000000" font-family="sans-serif" font-size="14" font-weight="bold" lengthAdjust="spacing" textLength="106" x="313" y="21.9951">Component B</text></g><!--entity node_a--><g id="elem_node_a"><rect fill="#F1F1F1" height="36.2969" rx="2.5" ry="2.5" style="stroke:#181818;stroke-width:0.5;" width="50" x="55" y="42"/><text fill="#000000" font-family="sans-serif" font-size="14" lengthAdjust="spacing" textLength="30" x="65" y="64.9951">REQ</text></g><!--entity proto_a--><g id="elem_proto_a"><rect fill="#F1F1F1" height="101.4844" rx="2.5" ry="2.5" style="stroke:#181818;stroke-width:0.5;" width="113" x="23.5" y="252"/><text fill="#000000" font-family="sans-serif" font-size="14" lengthAdjust="spacing" textLength="93" x="33.5" y="274.9951">message info</text><text fill="#000000" font-family="sans-serif" font-size="14" lengthAdjust="spacing" textLength="9" x="33.5" y="291.292">{</text><text fill="#000000" font-family="sans-serif" font-size="14" lengthAdjust="spacing" textLength="52" x="49.5" y="307.5889">int num</text><text fill="#000000" font-family="sans-serif" font-size="14" lengthAdjust="spacing" textLength="61" x="49.5" y="323.8857">str name</text><text fill="#000000" font-family="sans-serif" font-size="14" lengthAdjust="spacing" textLength="9" x="33.5" y="340.1826">}</text></g><!--entity bytes_a--><g id="elem_bytes_a"><rect fill="#F1F1F1" height="36.2969" rx="2.5" ry="2.5" style="stroke:#181818;stroke-width:0.5;" width="87" x="36.5" y="139"/><text fill="#000000" font-family="sans-serif" font-size="14" lengthAdjust="spacing" textLength="67" x="46.5" y="161.9951">list[bytes]</text></g><!--entity node_b--><g id="elem_node_b"><rect fill="#F1F1F1" height="36.2969" rx="2.5" ry="2.5" style="stroke:#181818;stroke-width:0.5;" width="48" x="329" y="42"/><text fill="#000000" font-family="sans-serif" font-size="14" lengthAdjust="spacing" textLength="28" x="339" y="64.9951">REP</text></g><!--entity proto_b--><g id="elem_proto_b"><rect fill="#F1F1F1" height="101.4844" rx="2.5" ry="2.5" style="stroke:#181818;stroke-width:0.5;" width="113" x="309.5" y="252"/><text fill="#000000" font-family="sans-serif" font-size="14" lengthAdjust="spacing" textLength="93" x="319.5" y="274.9951">message info</text><text fill="#000000" font-family="sans-serif" font-size="14" lengthAdjust="spacing" textLength="9" x="319.5" y="291.292">{</text><text fill="#000000" font-family="sans-serif" font-size="14" lengthAdjust="spacing" textLength="52" x="335.5" y="307.5889">int num</text><text fill="#000000" font-family="sans-serif" font-size="14" lengthAdjust="spacing" textLength="61" x="335.5" y="323.8857">str name</text><text fill="#000000" font-family="sans-serif" font-size="14" lengthAdjust="spacing" textLength="9" x="319.5" y="340.1826">}</text></g><!--entity bytes_b--><g id="elem_bytes_b"><rect fill="#F1F1F1" height="36.2969" rx="2.5" ry="2.5" style="stroke:#181818;stroke-width:0.5;" width="87" x="309.5" y="139"/><text fill="#000000" font-family="sans-serif" font-size="14" lengthAdjust="spacing" textLength="67" x="319.5" y="161.9951">list[bytes]</text></g><!--reverse link bytes_a to proto_a--><g id="link_bytes_a_proto_a"><path d="M80,180.15 C80,199.22 80,227.45 80,251.89 " fill="none" id="bytes_a-backto-proto_a" style="stroke:#181818;stroke-width:1.0;stroke-dasharray:7.0,7.0;"/><polygon fill="#181818" points="80,175.02,76,184.02,80,180.02,84,184.02,80,175.02" style="stroke:#181818;stroke-width:1.0;"/><text fill="#000000" font-family="sans-serif" font-size="13" lengthAdjust="spacing" textLength="52" x="81" y="218.0669">serialize</text></g><!--reverse link node_a to bytes_a--><g id="link_node_a_bytes_a"><path d="M80,83.46 C80,100.37 80,123.19 80,138.69 " fill="none" id="node_a-backto-bytes_a" style="stroke:#181818;stroke-width:1.0;stroke-dasharray:7.0,7.0;"/><polygon fill="#181818" points="80,78.42,76,87.42,80,83.42,84,87.42,80,78.42" style="stroke:#181818;stroke-width:1.0;"/></g><!--link node_b to bytes_b--><g id="link_node_b_bytes_b"><path d="M353,78.42 C353,93.96 353,116.78 353,133.66 " fill="none" id="node_b-to-bytes_b" style="stroke:#181818;stroke-width:1.0;stroke-dasharray:7.0,7.0;"/><polygon fill="#181818" points="353,138.69,357,129.69,353,133.69,349,129.69,353,138.69" style="stroke:#181818;stroke-width:1.0;"/></g><!--link bytes_b to proto_b--><g id="link_bytes_b_proto_b"><path d="M354.54,175.02 C356.14,192.7 358.73,221.3 361.05,246.83 " fill="none" id="bytes_b-to-proto_b" style="stroke:#181818;stroke-width:1.0;stroke-dasharray:7.0,7.0;"/><polygon fill="#181818" points="361.51,251.89,364.698,242.5714,361.0676,246.9096,356.7294,243.2792,361.51,251.89" style="stroke:#181818;stroke-width:1.0;"/><text fill="#000000" font-family="sans-serif" font-size="13" lengthAdjust="spacing" textLength="68" x="359" y="218.0669">deserialize</text></g><!--link node_a to node_b--><g id="link_node_a_node_b"><path d="M105.19,60 C157.47,60 277.12,60 328.65,60 " fill="none" id="node_a-node_b" style="stroke:#181818;stroke-width:1.0;"/><text fill="#000000" font-family="sans-serif" font-size="13" font-style="italic" lengthAdjust="spacing" textLength="187" x="123.5" y="53.0669">zmq communication protocol</text></g><!--SRC=[jP0zRyCW48Pt_ueJk-tTGwKcojwFCOgYmxv4g72uW8Uaodyls0GhQZiM2OdxUjzxy1-AHtHeeBTcj4mStiD54pZg0_9PKrML2eXjUJuBG3yF7H6-AbZduMttccfi1phYGsLqDjZOluzPGzxZcK3noSOmIQIZOXjF9aS-E60q5CDRl8VgGKvevSDUNWBvmxpE_9mzxqxDr3pTqnruSWgrkYQzd5mwygwtFs0tAwpy0VjIOEKliFAVOPFdOWxDK5Xb0Spfl4m70wsV474NSAXhLzTPfmFHjbVpcRpDnAh7e2ml2htLRIk-0G00]--></g></svg>